<svg xmlns="http://www.w3.org/2000/svg" fill="none" viewBox="0 0 7 30" stroke-width="1.5" aria-hidden="true"><path fill="currentColor" d="M6.58 15.182c0 2.727-.345 5.303-1.035 7.727a27.643 27.643 0 0 1-2.965 6.818H.739a19.87 19.87 0 0 0 1.511-3.034c.462-1.129.86-2.333 1.193-3.614.334-1.28.591-2.59.773-3.931.182-1.341.273-2.663.273-3.966 0-1.75-.16-3.515-.478-5.296a31.827 31.827 0 0 0-1.33-5.068C2.122 3.22 1.474 1.826.74.636h1.84a27.846 27.846 0 0 1 2.966 6.83c.69 2.424 1.035 4.996 1.035 7.716Z"/></svg>