<svg xmlns="http://www.w3.org/2000/svg" fill="none" viewBox="0 0 22 16" stroke-width="1.5" aria-hidden="true"><path stroke="currentColor" stroke-linecap="round" stroke-linejoin="round" d="M21 6H1m9 4H5M1 4.2v7.6c0 1.12 0 1.68.218 2.108a2 2 0 0 0 .874.874C2.52 15 3.08 15 4.2 15h13.6c1.12 0 1.68 0 2.108-.218a2 2 0 0 0 .874-.874C21 13.48 21 12.92 21 11.8V4.2c0-1.12 0-1.68-.218-2.108a2 2 0 0 0-.874-.874C19.48 1 18.92 1 17.8 1H4.2c-1.12 0-1.68 0-2.108.218a2 2 0 0 0-.874.874C1 2.52 1 3.08 1 4.2Z"/></svg>