<svg xmlns="http://www.w3.org/2000/svg" fill="none" viewBox="0 0 7 30" stroke-width="1.5" aria-hidden="true"><path fill="currentColor" d="M.511 15.182c0-2.728.345-5.303 1.034-7.727A27.643 27.643 0 0 1 4.511.636h1.841A20.594 20.594 0 0 0 4.83 3.67a29.703 29.703 0 0 0-1.182 3.614c-.334 1.28-.591 2.591-.773 3.932a29.324 29.324 0 0 0-.273 3.966c0 1.75.16 3.515.478 5.295.318 1.78.757 3.47 1.318 5.069.568 1.598 1.22 2.992 1.954 4.181h-1.84a27.845 27.845 0 0 1-2.967-6.83C.856 20.475.511 17.903.511 15.183Z"/></svg>