<svg xmlns="http://www.w3.org/2000/svg" fill="none" viewBox="0 0 24 24" stroke-width="1.5" aria-hidden="true"><path fill="currentColor" fill-rule="evenodd" d="M16.19 4.19c-.061.06-.19.247-.19.81v1h2V5c0-.563-.129-.75-.19-.81-.06-.061-.247-.19-.81-.19-.563 0-.75.129-.81.19ZM20 5c0-.817-.181-1.63-.775-2.225C18.63 2.181 17.817 2 17 2c-.817 0-1.63.181-2.225.775C14.181 3.37 14 4.183 14 5v5a1 1 0 1 0 2 0V8h2v2a1 1 0 1 0 2 0V5ZM7 5a1 1 0 0 1 1 1v9.586l1.293-1.293a1 1 0 0 1 1.414 1.414l-3 3a1 1 0 0 1-1.414 0l-3-3a1 1 0 1 1 1.414-1.414L6 15.586V6a1 1 0 0 1 1-1Zm7 9a1 1 0 0 1 1-1h4a1 1 0 0 1 .868 1.496L16.723 20H19a1 1 0 1 1 0 2h-4a1 1 0 0 1-.868-1.496L17.277 15H15a1 1 0 0 1-1-1Z" clip-rule="evenodd"/></svg>