<svg xmlns="http://www.w3.org/2000/svg" viewBox="0 0 24 24" fill="currentColor" aria-hidden="true"><path fill-rule="evenodd" d="M3.568 2h16.864c.253 0 .498 0 .707.017.228.019.498.063.77.201a2 2 0 0 1 .873.874c.139.271.183.541.201.77.017.208.017.454.017.706v.758c0 .208.002.47-.066.726a1.999 1.999 0 0 1-.283.62c-.149.218-.348.39-.505.525a7.4 7.4 0 0 0-.043.037l-6.396 5.543a6.14 6.14 0 0 0-.2.178l-.004.003v.004a6.262 6.262 0 0 0-.003.269V18.496c.002.138.005.423-.094.69a1.5 1.5 0 0 1-.397.586c-.21.19-.477.294-.605.344l-.035.014-3.428 1.37c-.16.064-.335.135-.49.181a1.53 1.53 0 0 1-.756.05 1.5 1.5 0 0 1-.945-.64 1.529 1.529 0 0 1-.235-.721 6.073 6.073 0 0 1-.015-.522v-6.617c0-.144 0-.216-.003-.269v-.004l-.003-.003a6.25 6.25 0 0 0-.2-.178L1.896 7.234a18.289 18.289 0 0 0-.042-.037c-.158-.136-.357-.307-.506-.525a2 2 0 0 1-.283-.62C.999 5.796 1 5.534 1 5.326V4.568c0-.252 0-.498.017-.706.019-.229.063-.499.201-.77a2 2 0 0 1 .874-.874c.272-.138.541-.182.77-.201C3.07 2 3.316 2 3.568 2Z" clip-rule="evenodd"/></svg>