<svg xmlns="http://www.w3.org/2000/svg" viewBox="0 0 54 48" fill="currentColor" aria-hidden="true"><path d="M6 6c0-1.864 0-2.796-.304-3.53A4 4 0 0 0 3.53.303C2.796 0 1.864 0 0 0v48c1.864 0 2.796 0 3.53-.304a4 4 0 0 0 2.166-2.165C6 44.796 6 43.864 6 42V6Z"/><circle cx="34" cy="24" r="12"/><path stroke-linecap="round" stroke-linejoin="round" d="M33.333 19h.012"/><path fill-rule="evenodd" d="M31 23.333a1 1 0 0 1 1-1h1.333a1 1 0 0 1 1 1v4.332h.333a1 1 0 1 1 0 2h-1.333a1 1 0 0 1-1-1v-4.332H32a1 1 0 0 1-1-1Z" clip-rule="evenodd"/></svg>