<svg xmlns="http://www.w3.org/2000/svg" viewBox="0 0 54 48" fill="currentColor" aria-hidden="true"><path d="M6 6c0-1.864 0-2.796-.304-3.53A4 4 0 0 0 3.53.303C2.796 0 1.864 0 0 0v48c1.864 0 2.796 0 3.53-.304a4 4 0 0 0 2.166-2.165C6 44.796 6 43.864 6 42V6Z"/><path d="M46 24c0 6.627-5.373 12-12 12s-12-5.373-12-12 5.373-12 12-12 12 5.373 12 12Zm-20.258 0a8.258 8.258 0 1 0 16.516 0 8.258 8.258 0 0 0-16.516 0Z" opacity=".3"/><path d="M44.13 24c1.032 0 1.885-.843 1.724-1.863a12 12 0 0 0-9.99-9.991c-1.021-.16-1.864.692-1.864 1.725 0 1.033.848 1.85 1.855 2.082a8.268 8.268 0 0 1 3.984 2.208 8.257 8.257 0 0 1 2.208 3.984C42.28 23.152 43.096 24 44.13 24Z"/></svg>