<svg width="24" height="24" viewBox="0 0 24 24" fill="none" xmlns="http://www.w3.org/2000/svg">
<path fill-rule="evenodd" clip-rule="evenodd" d="M13.4142 12L18.7071 6.70711C19.0976 6.31658 19.0976 5.68342 18.7071 5.29289C18.3166 4.90237 17.6834 4.90237 17.2929 5.29289L11.2929 11.2929C10.9024 11.6834 10.9024 12.3166 11.2929 12.7071L17.2929 18.7071C17.6834 19.0976 18.3166 19.0976 18.7071 18.7071C19.0976 18.3166 19.0976 17.6834 18.7071 17.2929L13.4142 12ZM7 6C7 5.44772 6.55228 5 6 5C5.44772 5 5 5.44772 5 6V18C5 18.5523 5.44772 19 6 19C6.55228 19 7 18.5523 7 18V6Z" fill="#4B5562"/>
</svg>
