<svg width="7" height="30" viewBox="0 0 7 30" fill="none" xmlns="http://www.w3.org/2000/svg">
<path d="M6.57955 15.1818C6.57955 17.9091 6.23485 20.4848 5.54545 22.9091C4.85606 25.3333 3.86742 27.6061 2.57955 29.7273H0.738636C1.29167 28.8333 1.79545 27.822 2.25 26.6932C2.71212 25.5644 3.10985 24.3598 3.44318 23.0795C3.77652 21.7992 4.03409 20.4886 4.21591 19.1477C4.39773 17.8068 4.48864 16.4848 4.48864 15.1818C4.48864 13.4318 4.32955 11.6667 4.01136 9.88636C3.69318 8.10606 3.25 6.41667 2.68182 4.81818C2.12121 3.2197 1.47348 1.82576 0.738636 0.636362H2.57955C3.86742 2.76515 4.85606 5.04167 5.54545 7.46591C6.23485 9.89015 6.57955 12.4621 6.57955 15.1818Z" fill="#4B5562"/>
</svg>
