<svg width="7" height="30" viewBox="0 0 7 30" fill="none" xmlns="http://www.w3.org/2000/svg">
<path d="M0.511364 15.1818C0.511364 12.4545 0.856061 9.87879 1.54545 7.45454C2.23485 5.0303 3.22348 2.75758 4.51136 0.636362H6.35227C5.79924 1.5303 5.29167 2.54167 4.82955 3.67045C4.375 4.79924 3.98106 6.00379 3.64773 7.28409C3.31439 8.56439 3.05682 9.875 2.875 11.2159C2.69318 12.5492 2.60227 13.8712 2.60227 15.1818C2.60227 16.9318 2.76136 18.697 3.07955 20.4773C3.39773 22.2576 3.83712 23.947 4.39773 25.5455C4.96591 27.1439 5.61742 28.5379 6.35227 29.7273H4.51136C3.22348 27.5985 2.23485 25.322 1.54545 22.8977C0.856061 20.4735 0.511364 17.9015 0.511364 15.1818Z" fill="#4B5562"/>
</svg>
