<svg width="24" height="24" viewBox="0 0 24 24" fill="none" xmlns="http://www.w3.org/2000/svg">
<mask id="path-1-inside-1_5873_94034" fill="white">
<path fill-rule="evenodd" clip-rule="evenodd" d="M17.5385 18.8752C17.5385 18.8754 17.5387 18.8755 17.5388 18.8754C19.7807 17.165 21.2308 14.442 21.2308 11.375C21.2308 6.19733 17.098 2 12 2C6.902 2 2.76924 6.19733 2.76924 11.375C2.76924 14.442 4.21934 17.165 6.46118 18.8754C6.46133 18.8755 6.46155 18.8754 6.46155 18.8752C6.46155 18.8751 6.46165 18.875 6.46177 18.875L17.5382 18.875C17.5384 18.875 17.5385 18.8751 17.5385 18.8752Z"/>
</mask>
<path d="M6.46177 18.875L6.46177 17.375L6.46177 18.875ZM6.46118 18.8754L5.55134 20.068L6.46118 18.8754ZM17.5382 18.875V17.375V18.875ZM17.5388 18.8754L16.629 17.6829L17.5388 18.8754ZM19.7308 11.375C19.7308 13.9598 18.5105 16.2474 16.629 17.6829L18.4487 20.068C21.0509 18.0826 22.7308 14.9242 22.7308 11.375H19.7308ZM12 3.5C16.2478 3.5 19.7308 7.00375 19.7308 11.375H22.7308C22.7308 5.39091 17.9483 0.5 12 0.5V3.5ZM4.26924 11.375C4.26924 7.00375 7.75226 3.5 12 3.5V0.5C6.05173 0.5 1.26924 5.39091 1.26924 11.375H4.26924ZM7.37103 17.6829C5.48951 16.2474 4.26924 13.9598 4.26924 11.375H1.26924C1.26924 14.9242 2.94916 18.0826 5.55134 20.068L7.37103 17.6829ZM6.46177 20.375L17.5382 20.375V17.375L6.46177 17.375L6.46177 20.375ZM7.96155 18.8752C7.96155 19.7035 7.29008 20.375 6.46177 20.375L6.46177 17.375C5.63322 17.375 4.96155 18.0467 4.96155 18.8752H7.96155ZM5.55134 20.068C6.53799 20.8207 7.96155 20.1181 7.96155 18.8752H4.96155C4.96155 17.6327 6.38468 16.9303 7.37103 17.6829L5.55134 20.068ZM17.5382 20.375C16.7082 20.375 16.0385 19.7018 16.0385 18.8752H19.0385C19.0385 18.0484 18.3685 17.375 17.5382 17.375V20.375ZM16.629 17.6829C17.6107 16.9339 19.0385 17.6269 19.0385 18.8752H16.0385C16.0385 20.124 17.4667 20.8172 18.4487 20.068L16.629 17.6829Z" fill="#000" mask="url(#path-1-inside-1_5873_94034)"/>
<path fill-rule="evenodd" clip-rule="evenodd" d="M19.3846 21.375C19.3846 21.7202 19.1048 22 18.7596 22L5.2404 22C4.89522 22 4.6154 21.7202 4.6154 21.375L4.6154 20.75C4.6154 20.4048 4.89522 20.125 5.2404 20.125L18.7596 20.125C19.1048 20.125 19.3846 20.4048 19.3846 20.75L19.3846 21.375Z" fill="#000" opacity="0.4"/>
<path d="M18.0592 12.4296C18.2299 12.4593 18.3929 12.3446 18.4136 12.1726C18.6085 10.5567 18.2051 8.92029 17.2751 7.5851C16.346 6.25117 14.9628 5.32044 13.3995 4.96826C13.2305 4.93019 13.068 5.04573 13.0392 5.21653L12.9249 5.89388C12.8963 6.06344 13.0104 6.2233 13.1777 6.26305C14.4045 6.55453 15.4883 7.29249 16.2201 8.34308C16.9527 9.39492 17.2769 10.6804 17.1377 11.9539C17.119 12.1248 17.2318 12.2856 17.4012 12.3151L18.0592 12.4296Z" fill="#000" opacity="0.4"/>
</svg>
