<svg width="54" height="48" viewBox="0 0 54 48" fill="none" xmlns="http://www.w3.org/2000/svg">
<path d="M6 6C6 4.13623 6 3.20435 5.69552 2.46927C5.28954 1.48915 4.51085 0.710458 3.53073 0.304482C2.79565 0 1.86377 0 0 0V48C1.86377 48 2.79565 48 3.53073 47.6955C4.51085 47.2895 5.28954 46.5108 5.69552 45.5307C6 44.7957 6 43.8638 6 42V6Z" fill="#22C45E"/>
<circle cx="34" cy="24" r="12" fill="#22C45E"/>
<path fill-rule="evenodd" clip-rule="evenodd" d="M38.6428 20.234C39.0659 20.589 39.121 21.2197 38.7661 21.6428L33.7315 27.6428C33.3818 28.0596 32.7632 28.1203 32.3391 27.7795L29.3736 25.3965C28.9431 25.0506 28.8745 24.4211 29.2205 23.9906C29.5664 23.5601 30.1959 23.4915 30.6264 23.8375L32.8287 25.6073L37.234 20.3572C37.589 19.9342 38.2197 19.879 38.6428 20.234Z" fill="white"/>
</svg>

