<svg width="14" height="22" viewBox="0 0 14 22" fill="none" xmlns="http://www.w3.org/2000/svg">
<path fill-rule="evenodd" clip-rule="evenodd" d="M8 1C8 0.447715 7.55228 0 7 0C6.44772 0 6 0.447715 6 1V2H5C2.23858 2 0 4.23858 0 7C0 9.76142 2.23858 12 5 12H6V18H5C3.34315 18 2 16.6569 2 15C2 14.4477 1.55228 14 1 14C0.447715 14 0 14.4477 0 15C0 17.7614 2.23858 20 5 20H6V21C6 21.5523 6.44772 22 7 22C7.55228 22 8 21.5523 8 21V20H9C11.7614 20 14 17.7614 14 15C14 12.2386 11.7614 10 9 10H8V4H9C10.6569 4 12 5.34315 12 7C12 7.55228 12.4477 8 13 8C13.5523 8 14 7.55228 14 7C14 4.23858 11.7614 2 9 2H8V1ZM6 4H5C3.34315 4 2 5.34315 2 7C2 8.65685 3.34315 10 5 10H6V4ZM8 12V18H9C10.6569 18 12 16.6569 12 15C12 13.3431 10.6569 12 9 12H8Z" fill="#666C7A"/>
</svg>
