<svg width="54" height="48" viewBox="0 0 54 48" fill="none" xmlns="http://www.w3.org/2000/svg">
<path d="M6 6C6 4.13623 6 3.20435 5.69552 2.46927C5.28954 1.48915 4.51085 0.710458 3.53073 0.304482C2.79565 0 1.86377 0 0 0V48C1.86377 48 2.79565 48 3.53073 47.6955C4.51085 47.2895 5.28954 46.5108 5.69552 45.5307C6 44.7957 6 43.8638 6 42V6Z" fill="#EF4443"/>
<circle cx="34" cy="24" r="12" fill="#EF4443"/>
<path fill-rule="evenodd" clip-rule="evenodd" d="M37.7071 20.2929C38.0976 20.6834 38.0976 21.3166 37.7071 21.7071L31.7071 27.7071C31.3166 28.0976 30.6834 28.0976 30.2929 27.7071C29.9024 27.3166 29.9024 26.6834 30.2929 26.2929L36.2929 20.2929C36.6834 19.9024 37.3166 19.9024 37.7071 20.2929Z" fill="white"/>
<path fill-rule="evenodd" clip-rule="evenodd" d="M30.2929 20.2929C30.6834 19.9024 31.3166 19.9024 31.7071 20.2929L37.7071 26.2929C38.0976 26.6834 38.0976 27.3166 37.7071 27.7071C37.3166 28.0976 36.6834 28.0976 36.2929 27.7071L30.2929 21.7071C29.9024 21.3166 29.9024 20.6834 30.2929 20.2929Z" fill="white"/>
</svg>
