<svg width="54" height="48" viewBox="0 0 54 48" fill="none" xmlns="http://www.w3.org/2000/svg">
<path d="M6 6C6 4.13623 6 3.20435 5.69552 2.46927C5.28954 1.48915 4.51085 0.710458 3.53073 0.304482C2.79565 0 1.86377 0 0 0V48C1.86377 48 2.79565 48 3.53073 47.6955C4.51085 47.2895 5.28954 46.5108 5.69552 45.5307C6 44.7957 6 43.8638 6 42V6Z" fill="#698DFB"/>
<circle cx="34" cy="24" r="12" fill="#698DFB"/>
<path d="M33.3325 19H33.3452" stroke="white" stroke-width="3" stroke-linecap="round" stroke-linejoin="round"/>
<path fill-rule="evenodd" clip-rule="evenodd" d="M31 23.333C31 22.7807 31.4477 22.333 32 22.333H33.3331C33.8854 22.333 34.3331 22.7807 34.3331 23.333V27.6654H34.6662C35.2185 27.6654 35.6662 28.1131 35.6662 28.6654C35.6662 29.2176 35.2185 29.6654 34.6662 29.6654H33.3331C32.7808 29.6654 32.3331 29.2176 32.3331 28.6654V24.333H32C31.4477 24.333 31 23.8853 31 23.333Z" fill="white"/>
</svg>
