<svg width="54" height="48" viewBox="0 0 54 48" fill="none" xmlns="http://www.w3.org/2000/svg">
<path d="M6 6C6 4.13623 6 3.20435 5.69552 2.46927C5.28954 1.48915 4.51085 0.710458 3.53073 0.304482C2.79565 0 1.86377 0 0 0V48C1.86377 48 2.79565 48 3.53073 47.6955C4.51085 47.2895 5.28954 46.5108 5.69552 45.5307C6 44.7957 6 43.8638 6 42V6Z" fill="#1E55F9"/>
<path opacity="0.3" d="M46 24C46 30.6274 40.6274 36 34 36C27.3726 36 22 30.6274 22 24C22 17.3726 27.3726 12 34 12C40.6274 12 46 17.3726 46 24ZM25.7418 24C25.7418 28.5609 29.4391 32.2582 34 32.2582C38.5609 32.2582 42.2582 28.5609 42.2582 24C42.2582 19.4391 38.5609 15.7418 34 15.7418C29.4391 15.7418 25.7418 19.4391 25.7418 24Z" fill="#1E55F9"/>
<path d="M44.1291 24C45.1624 24 46.0149 23.1574 45.8544 22.1367C45.7075 21.202 45.4503 20.2859 45.0866 19.4078C44.4835 17.9519 43.5996 16.629 42.4853 15.5147C41.371 14.4004 40.0481 13.5165 38.5922 12.9134C37.7141 12.5497 36.798 12.2925 35.8633 12.1456C34.8426 11.9851 34 12.8376 34 13.8709C34 14.9042 34.8481 15.7207 35.8549 15.9528C36.2998 16.0554 36.7365 16.1949 37.1603 16.3704C38.1622 16.7854 39.0726 17.3937 39.8394 18.1606C40.6063 18.9274 41.2146 19.8378 41.6296 20.8397C41.8051 21.2635 41.9446 21.7002 42.0472 22.1451C42.2793 23.1519 43.0958 24 44.1291 24Z" fill="#1E55F9"/>
</svg>
