<svg width="54" height="48" viewBox="0 0 54 48" fill="none" xmlns="http://www.w3.org/2000/svg">
<path d="M6 6C6 4.13623 6 3.20435 5.69552 2.46927C5.28954 1.48915 4.51085 0.710458 3.53073 0.304482C2.79565 0 1.86377 0 0 0V48C1.86377 48 2.79565 48 3.53073 47.6955C4.51085 47.2895 5.28954 46.5108 5.69552 45.5307C6 44.7957 6 43.8638 6 42V6Z" fill="#F59E0B"/>
<circle cx="34" cy="24" r="12" fill="#F59E0B"/>
<path fill-rule="evenodd" clip-rule="evenodd" d="M34.9999 28.6653C34.9999 29.2176 34.5522 29.6653 33.9999 29.6653L33.9873 29.6653C33.435 29.6653 32.9873 29.2176 32.9873 28.6653C32.9873 28.1131 33.435 27.6653 33.9873 27.6653L33.9999 27.6653C34.5522 27.6653 34.9999 28.1131 34.9999 28.6653Z" fill="white"/>
<path fill-rule="evenodd" clip-rule="evenodd" d="M33.9995 25.3323C33.4472 25.3323 32.9995 24.8846 32.9995 24.3323L32.9995 19C32.9995 18.4477 33.4472 18 33.9995 18C34.5517 18 34.9995 18.4477 34.9995 19L34.9995 24.3323C34.9995 24.8846 34.5517 25.3323 33.9995 25.3323Z" fill="white"/>
</svg>
