<svg width="48" height="48" viewBox="0 0 48 48" fill="none" xmlns="http://www.w3.org/2000/svg">
<path opacity="0.3" d="M48 24C48 37.2548 37.2548 48 24 48C10.7452 48 0 37.2548 0 24C0 10.7452 10.7452 0 24 0C37.2548 0 48 10.7452 48 24ZM7.48361 24C7.48361 33.1218 14.8782 40.5164 24 40.5164C33.1218 40.5164 40.5164 33.1218 40.5164 24C40.5164 14.8782 33.1218 7.48361 24 7.48361C14.8782 7.48361 7.48361 14.8782 7.48361 24Z" fill="#1E55F9"/>
<path d="M44.2582 24C46.3247 24 48.0298 22.3148 47.7089 20.2733C47.4151 18.4041 46.9006 16.5718 46.1731 14.8156C44.967 11.9038 43.1992 9.25804 40.9706 7.02944C38.742 4.80083 36.0962 3.033 33.1844 1.82689C31.4282 1.09944 29.5959 0.584918 27.7267 0.291103C25.6852 -0.0297888 24 1.67526 24 3.7418V3.7418C24 5.80834 25.6962 7.44147 27.7099 7.90566C28.5997 8.11076 29.473 8.38977 30.3205 8.74084C32.3244 9.57087 34.1452 10.7875 35.6789 12.3211C37.2125 13.8548 38.4291 15.6756 39.2592 17.6794C39.6102 18.527 39.8892 19.4003 40.0943 20.2901C40.5585 22.3038 42.1917 24 44.2582 24V24Z" fill="#1E55F9"/>
</svg>
