<svg xmlns="http://www.w3.org/2000/svg" fill="none" viewBox="0 0 48 48" stroke-width="1.5" aria-hidden="true"><path fill="currentColor" d="M48 24c0 13.255-10.745 24-24 24S0 37.255 0 24 10.745 0 24 0s24 10.745 24 24ZM7.484 24c0 9.122 7.394 16.516 16.516 16.516 9.122 0 16.516-7.394 16.516-16.516 0-9.122-7.394-16.516-16.516-16.516-9.122 0-16.516 7.394-16.516 16.516Z" opacity=".3"/><path fill="currentColor" d="M44.258 24c2.067 0 3.772-1.685 3.45-3.727A23.996 23.996 0 0 0 27.728.291C25.685-.029 24 1.675 24 3.741c0 2.067 1.696 3.7 3.71 4.165A16.513 16.513 0 0 1 40.094 20.29c.465 2.014 2.098 3.71 4.164 3.71Z"/></svg>