<svg xmlns="http://www.w3.org/2000/svg" fill="none" viewBox="0 0 24 24" stroke-width="1.5" aria-hidden="true"><mask id="a" fill="currentColor"><path fill-rule="evenodd" d="M17.538 18.875a9.41 9.41 0 0 0 3.693-7.5C21.23 6.197 17.098 2 12 2s-9.23 4.197-9.23 9.375a9.41 9.41 0 0 0 3.692 7.5h11.076Z" clip-rule="evenodd"/></mask><path fill="currentColor" d="M6.462 18.875v-1.5 1.5Zm0 0-.91 1.193.91-1.193Zm11.076 0v-1.5 1.5Zm0 0-.909-1.192.91 1.192Zm2.193-7.5a7.91 7.91 0 0 1-3.102 6.308l1.82 2.385a10.91 10.91 0 0 0 4.282-8.693h-3ZM12 3.5c4.248 0 7.73 3.504 7.73 7.875h3C22.73 5.391 17.949.5 12 .5v3Zm-7.73 7.875C4.27 7.004 7.751 3.5 12 3.5v-3C6.052.5 1.27 5.39 1.27 11.375h3Zm3.101 6.308a7.91 7.91 0 0 1-3.102-6.308h-3c0 3.55 1.68 6.708 4.282 8.693l1.82-2.385Zm-.91 2.692h11.077v-3H6.462v3Zm1.5-1.5a1.5 1.5 0 0 1-1.5 1.5v-3a1.5 1.5 0 0 0-1.5 1.5h3Zm-2.41 1.193c.987.753 2.41.05 2.41-1.193h-3c0-1.242 1.424-1.945 2.41-1.192l-1.82 2.385Zm11.987.307a1.5 1.5 0 0 1-1.5-1.5h3a1.5 1.5 0 0 0-1.5-1.5v3Zm-.909-2.692c.982-.75 2.41-.056 2.41 1.192h-3c0 1.249 1.428 1.942 2.41 1.193l-1.82-2.385Z" mask="url(#a)"/><path fill="currentColor" fill-rule="evenodd" d="M19.385 21.375c0 .345-.28.625-.625.625H5.24a.625.625 0 0 1-.625-.625v-.625c0-.345.28-.625.625-.625h13.52c.345 0 .625.28.625.625v.625Z" clip-rule="evenodd" opacity=".4"/><path fill="currentColor" d="M18.06 12.43c.17.03.333-.085.354-.257a6.64 6.64 0 0 0-1.139-4.588A6.457 6.457 0 0 0 13.4 4.968a.3.3 0 0 0-.36.249l-.115.677c-.029.17.085.33.253.369a5.167 5.167 0 0 1 3.042 2.08 5.312 5.312 0 0 1 .918 3.61.327.327 0 0 0 .263.362l.658.115Z" opacity=".4"/></svg>