<svg xmlns="http://www.w3.org/2000/svg" fill="none" viewBox="0 0 54 48" stroke-width="1.5" aria-hidden="true"><path fill="currentColor" d="M6 6c0-1.864 0-2.796-.304-3.53A4 4 0 0 0 3.53.303C2.796 0 1.864 0 0 0v48c1.864 0 2.796 0 3.53-.304a4 4 0 0 0 2.166-2.165C6 44.796 6 43.864 6 42V6Z"/><circle cx="34" cy="24" r="12" fill="currentColor"/><path fill="currentColor" fill-rule="evenodd" d="M38.643 20.234a1 1 0 0 1 .123 1.409l-5.035 6a1 1 0 0 1-1.392.136l-2.965-2.383a1 1 0 1 1 1.252-1.559l2.203 1.77 4.405-5.25a1 1 0 0 1 1.409-.123Z" clip-rule="evenodd"/></svg>